<svg width="95" height="104" viewBox="0 0 95 104" version="1.1" xmlns="http://www.w3.org/2000/svg" xmlns:xlink="http://www.w3.org/1999/xlink">
<title>Group 2</title>
<desc>Created using Figma</desc>
<g id="Canvas" transform="translate(3210 -670)">
<g id="Group 2">
<g id="Path 2">
<use xlink:href="#path0_stroke" transform="matrix(0.999391 -0.0348995 0.0348995 0.999391 -3209.07 671.441)" fill="#FF5451"/>
</g>
<g id="Path 3">
<use xlink:href="#path1_stroke" transform="matrix(0.999391 -0.0348995 0.0348995 0.999391 -3126.94 755.95)" fill="#FF5451"/>
</g>
</g>
</g>
<defs>
<path id="path0_stroke" d="M 2.21672 0.12355C 2.28495 -0.424504 1.89598 -0.924104 1.34793 -0.992338C 0.799873 -1.06057 0.300273 -0.671603 0.232038 -0.12355L 2.21672 0.12355ZM 88.4497 97.6518C 89.0017 97.6698 89.4637 97.2369 89.4817 96.6849C 89.4996 96.1329 89.0667 95.6708 88.5147 95.6529L 88.4497 97.6518ZM 1.22438 0C 0.232038 -0.12355 0.231931 -0.122685 0.23178 -0.121465C 0.231671 -0.120584 0.231477 -0.119007 0.231262 -0.117247C 0.230831 -0.113724 0.230229 -0.108785 0.229466 -0.102438C 0.227939 -0.0897449 0.225761 -0.0714248 0.222992 -0.0475654C 0.217453 0.000153066 0.209546 0.0700313 0.199739 0.161368C 0.180126 0.344037 0.152908 0.612559 0.121826 0.96132C 0.0596652 1.65881 -0.0179704 2.67744 -0.0811369 3.97229C -0.20745 6.56157 -0.276023 10.2577 -0.0467549 14.7008C 0.411487 23.5813 2.06107 35.4765 6.84014 47.4888C 11.622 59.5082 19.5436 71.6591 32.545 81.0045C 45.5486 90.3514 63.5643 96.8418 88.4497 97.6518L 88.5147 95.6529C 63.9548 94.8535 46.3406 88.4576 33.7123 79.3805C 21.0819 70.3018 13.3697 58.4909 8.69847 46.7495C 4.0244 35.0011 2.40153 23.3367 1.95059 14.5978C 1.72527 10.2312 1.79292 6.60267 1.91649 4.06974C 1.97826 2.80347 2.05398 1.8116 2.11393 1.13886C 2.14391 0.802505 2.16994 0.545983 2.18831 0.374886C 2.19749 0.289339 2.20476 0.225154 2.20965 0.18303C 2.2121 0.161968 2.21395 0.146422 2.21514 0.136479C 2.21574 0.131508 2.21618 0.127937 2.21644 0.125779C 2.21657 0.124699 2.21664 0.124143 2.21671 0.123601C 2.21673 0.123398 2.21672 0.12355 1.22438 0Z"/>
<path id="path1_stroke" d="M 2.79139 -0.611308C 2.45378 -1.04838 1.82577 -1.12901 1.38869 -0.791393C 0.951618 -0.453777 0.870991 0.174233 1.20861 0.611308L 2.79139 -0.611308ZM 10.0156 10.377L 10.5532 11.2202L 11.4761 10.6318L 10.807 9.76565L 10.0156 10.377ZM -0.537546 15.9185C -1.00325 16.2154 -1.14011 16.8336 -0.843235 17.2993C -0.546356 17.765 0.07184 17.9018 0.537546 17.605L -0.537546 15.9185ZM 1.20861 0.611308L 9.22423 10.9883L 10.807 9.76565L 2.79139 -0.611308L 1.20861 0.611308ZM 9.47808 9.53372L -0.537546 15.9185L 0.537546 17.605L 10.5532 11.2202L 9.47808 9.53372Z"/>
</defs>
</svg>
